<svg width="32" height="32" viewBox="0 0 32 32" fill="none" xmlns="http://www.w3.org/2000/svg">
<path fill-rule="evenodd" clip-rule="evenodd" d="M29.9219 21.2712L20.5814 5.30382C19.6437 3.67819 17.8959 2.66921 16.0058 2.667C14.1154 2.66478 12.367 3.6696 11.4177 5.30388L2.07374 21.2772C1.10484 22.9063 1.08292 24.9477 2.02141 26.6126C2.96067 28.2789 4.71938 29.3158 6.63237 29.3314L25.3495 29.3315C27.2824 29.3127 29.0378 28.2789 29.9769 26.6141C30.9149 24.9513 30.8939 22.9144 29.9219 21.2712ZM4.37061 22.6319L13.7215 6.64687C14.195 5.83171 15.0635 5.33256 16.0027 5.33366C16.9417 5.33476 17.8099 5.83597 18.2756 6.64329L27.6234 22.6233C28.1134 23.4516 28.1239 24.4714 27.6543 25.3039C27.184 26.1376 26.3047 26.6554 25.3365 26.6649L6.64321 26.6647C5.69574 26.657 4.81481 26.1376 4.34442 25.3031C3.87455 24.4696 3.88552 23.4476 4.37061 22.6319ZM16.0003 23.9981C16.7369 23.9981 17.3341 23.4012 17.3341 22.6648C17.3341 21.9284 16.7369 21.3315 16.0003 21.3315C15.2637 21.3315 14.6665 21.9284 14.6665 22.6648C14.6665 23.4012 15.2637 23.9981 16.0003 23.9981ZM17.338 10.6648H14.6704V19.9981H17.338V10.6648Z" fill="white"/>
</svg>
