<svg width="18" height="18" viewBox="0 0 18 18" fill="none" xmlns="http://www.w3.org/2000/svg">
<g id="24 / time / calendar-dates">
<path id="icon" fill-rule="evenodd" clip-rule="evenodd" d="M6 4.5H4.5V3.75H3V6H15V3.75H13.5V4.5H12V3.75H6V4.5ZM15 7.5H3V15H15V7.5ZM12 2.25H6V1.5H4.5V2.25H3C2.17157 2.25 1.5 2.92157 1.5 3.75V15C1.5 15.8284 2.17157 16.5 3 16.5H15C15.8284 16.5 16.5 15.8284 16.5 15V3.75C16.5 2.92157 15.8284 2.25 15 2.25H13.5V1.5H12V2.25ZM5.25 10.5V9H6.75V10.5H5.25ZM8.25 10.5H9.75V9H8.25V10.5ZM11.25 10.5V9H12.75V10.5H11.25ZM5.25 12V13.5H6.75V12H5.25ZM9.75 13.5H8.25V12H9.75V13.5Z" fill="white"/>
</g>
</svg>
