<svg width="24" height="34" viewBox="0 0 24 34" fill="none" xmlns="http://www.w3.org/2000/svg">
<path d="M12 34C18.588 34 24 28.4529 24 21.3333C24 19.5857 23.916 17.7123 23.004 14.8002C22.092 11.8881 21.9088 11.5124 20.9448 9.7138C20.5328 13.3833 18.3288 14.9133 17.7688 15.3706C17.7688 14.8946 16.436 9.6356 14.4144 6.48805C12.4296 3.4 9.7304 1.37445 8.148 0C8.148 2.6095 7.4576 6.4889 6.468 8.466C5.4792 10.4423 5.2936 10.5145 4.0576 11.985C2.8224 13.4555 2.2552 13.9103 1.2216 15.6953C0.1888 17.4803 0 19.8577 0 21.6053C0 28.7249 5.412 34 12 34Z" fill="white"/>
</svg>
